<?xml version="1.0" standalone="no"?>
<!DOCTYPE svg PUBLIC "-//W3C//DTD SVG 20010904//EN"
 "http://www.w3.org/TR/2001/REC-SVG-20010904/DTD/svg10.dtd">
<svg version="1.0" xmlns="http://www.w3.org/2000/svg"
 width="512.000000pt" height="512.000000pt" viewBox="0 0 512.000000 512.000000"
 preserveAspectRatio="xMidYMid meet">
<metadata>
Created by potrace 1.11, written by Peter Selinger 2001-2013
</metadata>
<g transform="translate(0.000000,512.000000) scale(0.100000,-0.100000)"
fill="#000000" stroke="none">
<path d="M1697 5007 c-21 -20 -38 -46 -42 -67 -9 -49 -1 -571 9 -592 9 -20 9
-20 -84 -37 -36 -7 -97 -23 -136 -37 -39 -13 -73 -24 -75 -24 -3 0 -6 11 -7
25 -2 32 -266 491 -299 522 -53 50 -146 36 -179 -28 -30 -60 -17 -96 129 -348
75 -128 146 -242 158 -252 l22 -19 -85 -79 c-46 -44 -95 -95 -108 -114 l-23
-34 -32 31 c-17 17 -44 38 -60 46 -16 8 -105 59 -198 113 -222 128 -246 140
-284 139 -61 -2 -113 -57 -113 -119 0 -61 28 -84 271 -224 233 -135 293 -164
311 -153 6 4 5 -4 -2 -16 -14 -26 -45 -120 -56 -170 -12 -53 -13 -63 -16 -93
-2 -24 -6 -27 -23 -21 -26 10 -526 17 -583 9 -92 -14 -139 -104 -93 -178 35
-56 47 -58 372 -55 162 2 300 5 308 8 9 3 15 -5 18 -25 8 -58 43 -187 62 -231
l20 -44 -27 0 c-21 0 -237 -118 -477 -261 -58 -34 -80 -66 -80 -117 0 -77 52
-125 128 -117 34 3 473 251 518 292 15 13 30 38 35 55 8 27 31 44 156 117 80
47 149 89 153 93 4 3 -5 24 -19 45 -14 20 -26 42 -26 48 0 5 -7 23 -15 38 -24
47 -43 161 -40 244 15 378 397 646 758 533 144 -45 233 -114 338 -262 l16 -22
89 59 c177 116 198 128 202 116 7 -20 75 -48 109 -44 30 4 476 254 515 290 44
40 53 100 22 153 -35 58 -107 66 -187 21 -216 -119 -426 -247 -449 -271 l-27
-29 -27 36 c-33 43 -70 82 -142 145 l-53 47 29 28 c29 27 257 414 287 487 31
73 -12 150 -89 163 -42 7 -94 -16 -116 -51 -73 -115 -272 -473 -276 -496 -4
-16 -9 -30 -12 -30 -2 0 -36 11 -73 25 -38 13 -82 27 -97 30 -73 14 -98 18
-115 17 -14 -1 -17 3 -10 16 4 9 8 154 8 322 0 289 -1 306 -20 332 -44 59
-115 65 -168 15z"/>
<path d="M3147 3724 c-322 -58 -602 -244 -784 -518 l-39 -59 -155 -2 c-201 -2
-311 -29 -476 -117 -224 -119 -416 -365 -483 -619 -12 -46 -12 -46 -58 -48
-413 -15 -752 -361 -755 -770 -2 -150 23 -255 89 -382 115 -218 348 -382 589
-414 58 -8 3147 -9 3173 -1 9 3 35 7 57 11 299 44 590 266 720 550 48 104 57
134 79 255 14 72 15 276 2 330 -3 14 -8 39 -12 55 -10 50 -45 146 -76 210 -90
181 -246 341 -423 434 -74 39 -72 37 -78 86 -33 241 -152 482 -328 662 -173
177 -374 282 -644 339 -65 13 -320 12 -398 -2z m400 -404 c307 -84 519 -319
579 -640 6 -32 6 -94 1 -239 l-2 -54 50 -13 c143 -39 212 -66 280 -110 136
-87 229 -224 259 -381 35 -187 -17 -369 -148 -509 -72 -78 -145 -126 -249
-163 l-72 -26 -1545 -2 c-889 -1 -1565 2 -1592 7 -120 23 -225 105 -281 220
-30 60 -32 72 -32 165 0 91 3 106 31 165 58 123 183 212 316 226 57 6 84 1
251 -45 103 -28 194 -51 202 -51 11 0 14 8 11 28 -2 15 -7 56 -11 92 -3 36 -9
83 -12 105 -23 170 36 349 156 474 114 119 244 178 402 184 85 4 157 -10 283
-53 50 -16 97 -30 105 -30 10 0 26 26 45 73 81 200 135 288 234 385 192 186
484 262 739 192z"/>
</g>
</svg>
